PathFileType	4	(X/Y/Z)	3_coords_data.trc
DataRate	CameraRate	NumFrames	NumMarkers	Units	OrigDataRate	OrigDataStartFrame	OrigNumFrames
30.0	30.0	7	21	m	30.0	1	48
Frame#	Time	THUMB_TIP	THUMB_IP	THUMB_MCP	THUMB_CMC	INDEX_TIP	INDEX_DIP	INDEX_PIP	INDEX_MCP	MIDDLE_TIP	MIDDLE_DIP	MIDDLE_PIP	MIDDLE_MCP	RING_TIP	RING_DIP	RING_PIP	RING_MCP	PINKY_TIP	PINKY_DIP	PINKY_PIP	PINKY_MCP	WRIST
X1	Y1	Z1	X2	Y2	Z2	X3	Y3	Z3	X4	Y4	Z4	X5	Y5	Z5	X6	Y6	Z6	X7	Y7	Z7	X8	Y8	Z8	X9	Y9	Z9	X10	Y10	Z10	X11	Y11	Z11	X12	Y12	Z12	X13	Y13	Z13	X14	Y14	Z14	X15	Y15	Z15	X16	Y16	Z16	X17	Y17	Z17	X18	Y18	Z18	X19	Y19	Z19	X20	Y20	Z20	X21	Y21	Z21
0	0.0	-0.05922409820556641	-0.10664900207519531	0.9595650024414063	-0.06839309692382813	-0.09198960113525391	0.983666015625	-0.08025730133056641	-0.08315170288085938	1.0164500122070312	-0.08754959869384765	-0.056634899139404296	1.0413699951171875	-0.05475220108032226	-0.05796630096435547	0.9000139770507812	-0.06188090133666992	-0.05941360092163086	0.9240139770507813	-0.06978820037841797	-0.06000650024414062	0.9452150268554688	-0.07980480194091796	-0.05894789886474609	0.9828489990234375	-0.05674250030517578	-0.030330900192260743	0.8937979736328125	-0.06291559982299805	-0.031810199737548825	0.9185709838867188	-0.07443569946289062	-0.03591999816894531	0.9477849731445313	-0.07954830169677735	-0.036800498962402346	0.9805590209960937	-0.054411300659179686	0.004849740028381348	0.9139240112304687	-0.06579879760742187	-0.0011037600040435791	0.9365989990234375	-0.07791529846191406	-0.007941349983215332	0.956697998046875	-0.09215249633789062	-0.01796579933166504	0.9901710205078125	-0.05880229949951172	0.027014499664306642	0.9464110107421875	-0.06910749816894532	0.018232099533081053	0.9632540283203125	-0.07919869995117187	0.010220199584960938	0.9777410278320312	-0.08464620208740234	-0.002245019912719726	1.0021900024414063	-0.11481500244140624	-0.03612850189208985	1.0641300048828124
1	0.03333333333333333	-0.06007889938354492	-0.10591300201416015	0.960427001953125	-0.06804830169677735	-0.09212999725341797	0.984343994140625	-0.07927529907226563	-0.0833729019165039	1.0142100219726562	-0.08698249816894531	-0.058772899627685546	1.0409000244140625	-0.054358001708984374	-0.05848500061035156	0.90056298828125	-0.06209640121459961	-0.059493999481201175	0.9231690063476562	-0.07047949981689453	-0.060032100677490235	0.94639697265625	-0.08203089904785156	-0.05926470184326172	0.9823740234375	-0.05641510009765625	-0.030288799285888672	0.8939819946289063	-0.06373899841308593	-0.03214070129394531	0.918177001953125	-0.0731531982421875	-0.034340801239013674	0.9463140258789062	-0.08381790161132813	-0.037188499450683594	0.9819229736328124	-0.0553130989074707	0.004886419773101807	0.9143870239257812	-0.06531990051269532	-0.00066237998008728	0.9351409912109375	-0.07671119689941407	-0.007537000179290772	0.958176025390625	-0.08833460235595703	-0.01884149932861328	0.9918679809570312	-0.05882699966430664	0.026419000625610353	0.9471630249023437	-0.06841220092773438	0.018624300003051757	0.9629349975585938	-0.0769845962524414	0.010587300300598144	0.9779559936523438	-0.08491539764404298	-0.00273432993888855	1.0022899780273438	-0.11203099822998047	-0.035947498321533204	1.0616400146484375
2	0.06666666666666667	-0.060405799865722656	-0.10571900177001953	0.9604359741210937	-0.06821440124511718	-0.0920427017211914	0.9843040161132812	-0.07946320343017578	-0.0832958984375	1.0142899780273438	-0.08719789886474609	-0.058695598602294924	1.0410699462890625	-0.05428870010375977	-0.05845589828491211	0.9007310180664062	-0.06213890075683594	-0.05944169998168945	0.9233599853515625	-0.0705843963623047	-0.06003710174560547	0.9465770263671875	-0.08214510345458985	-0.059243698120117184	0.9824149780273438	-0.056175098419189454	-0.03017639923095703	0.894218994140625	-0.06364410018920899	-0.032055099487304686	0.9183629760742188	-0.07317739868164062	-0.03430270004272461	0.9465360107421875	-0.08389559936523437	-0.03723210144042969	0.9818070068359375	-0.05508330154418945	0.004831480026245117	0.9146680297851563	-0.06518240356445312	-0.0006737369894981381	0.9352979736328125	-0.07674549865722656	-0.007545139789581299	0.95825	-0.08858370208740235	-0.018880300521850586	0.9919249877929688	-0.05875289916992187	0.026308500289916992	0.9472899780273437	-0.06843990325927735	0.018560199737548827	0.963093994140625	-0.07713670349121093	0.010547699928283692	0.9780999755859375	-0.08519560241699219	-0.002732399940490722	1.0023400268554687	-0.11230999755859375	-0.035880298614501954	1.0615699462890624
3	0.1	-0.06051890182495117	-0.10560399627685547	0.9604099731445312	-0.0683853988647461	-0.0919354019165039	0.984385986328125	-0.0796156005859375	-0.0832655029296875	1.0143800048828124	-0.08737799835205078	-0.05872119903564453	1.0411300048828125	-0.05415879821777344	-0.058397899627685546	0.900905029296875	-0.06211750030517578	-0.05941960144042969	0.9235029907226563	-0.07056700134277344	-0.06000469970703125	0.9465449829101562	-0.08238330078125	-0.0592510986328125	0.982530029296875	-0.055915699005126954	-0.030134000778198243	0.894447021484375	-0.06350550079345703	-0.032008598327636716	0.91852197265625	-0.07318289947509765	-0.03427619934082031	0.94664599609375	-0.08420420074462891	-0.037208000183105466	0.98210302734375	-0.054892799377441404	0.004684959888458252	0.9148870239257813	-0.06515019989013672	-0.0007716150283813471	0.9354860229492188	-0.07681909942626954	-0.007585159778594971	0.9583889770507813	-0.08868070220947266	-0.018894800186157225	0.992031982421875	-0.05872880172729492	0.026240100860595705	0.9474669799804688	-0.06848560333251953	0.01849020004272461	0.9631950073242187	-0.07723390197753906	0.010507200241088867	0.9782310180664062	-0.08527179718017579	-0.0027084300518035887	1.0024099731445313	-0.11233300018310546	-0.0359901008605957	1.06172998046875
4	0.13333333333333333	-0.06069680023193359	-0.10556400299072266	0.9605399780273437	-0.06855650329589844	-0.09189330291748046	0.9844819946289063	-0.07970279693603516	-0.08329429626464843	1.0144500122070312	-0.08743730163574219	-0.058740299224853514	1.0411600341796876	-0.05427460098266602	-0.058414398193359376	0.9010499877929687	-0.06224250030517578	-0.059447498321533204	0.9235969848632812	-0.0708230972290039	-0.060067401885986325	0.946719970703125	-0.0826072998046875	-0.05932939910888672	0.9826710205078125	-0.055937400817871095	-0.03017020034790039	0.8945830078125	-0.0636614990234375	-0.032057701110839845	0.918697021484375	-0.07347080230712891	-0.034313400268554686	0.9466810302734375	-0.08429660034179688	-0.037282501220703125	0.9821630249023438	-0.054887699127197265	0.004443250179290772	0.91502197265625	-0.06527239990234375	-0.0009324359893798821	0.9354920043945313	-0.0771050033569336	-0.007648230075836182	0.9583809814453125	-0.08888860321044922	-0.018931999206542968	0.992093994140625	-0.05889419937133789	0.026200000762939452	0.94752001953125	-0.06870030212402344	0.018477800369262696	0.9632169799804687	-0.07739189910888672	0.01049899959564209	0.9781859741210938	-0.0854114990234375	-0.0028135499954223633	1.0023200073242187	-0.11241200256347657	-0.035895099639892576	1.061780029296875
5	0.16666666666666666	-0.06086009979248047	-0.1054800033569336	0.9605150146484375	-0.06867240142822266	-0.09184529876708984	0.9845170288085937	-0.07987999725341798	-0.08326360321044922	1.0145599975585937	-0.08758470153808594	-0.058714900970458984	1.041199951171875	-0.05419910049438476	-0.058352100372314454	0.901260986328125	-0.06234099960327148	-0.05938899993896484	0.9238280029296875	-0.07101830291748047	-0.06001910018920899	0.9469149780273437	-0.08283149719238281	-0.0593656997680664	0.9826890258789063	-0.05568980026245117	-0.030158800125122072	0.894833984375	-0.06360800170898437	-0.032059200286865236	0.9188469848632812	-0.07362329864501953	-0.03435409927368164	0.9467689819335937	-0.08477020263671875	-0.03730550003051758	0.9822620239257812	-0.05452470016479492	0.004120130062103271	0.9153499755859374	-0.06519819641113281	-0.001157709956169128	0.9356799926757813	-0.07731330108642578	-0.007824480056762695	0.9584710083007812	-0.08915329742431641	-0.01897719955444336	0.9921370239257813	-0.058864299774169924	0.026140199661254884	0.9477540283203125	-0.06880259704589843	0.018453699111938476	0.963416015625	-0.07758540344238281	0.01049489974975586	0.9783419799804688	-0.08568560028076172	-0.002828150033950805	1.002510009765625	-0.11272799682617188	-0.035703601837158205	1.06197998046875
6	0.2	-0.06067129898071289	-0.10504499816894532	0.960552001953125	-0.06865090179443359	-0.09152050018310547	0.9845709838867187	-0.0800177001953125	-0.08306079864501953	1.0146799926757812	-0.08758519744873047	-0.05854980087280273	1.041300048828125	-0.05327619934082031	-0.05777299880981445	0.9018170166015625	-0.06184989929199219	-0.05898699951171875	0.924177978515625	-0.07091600036621094	-0.05975239944458008	0.9471519775390626	-0.08322119903564452	-0.05933349990844727	0.9828679809570312	-0.0544656982421875	-0.029803300857543947	0.8955490112304687	-0.06292219924926758	-0.03180500030517578	0.9192230224609375	-0.07347650146484375	-0.03421200180053711	0.9469219970703125	-0.08505829620361328	-0.03729410171508789	0.9823779907226563	-0.05301670074462891	0.0037989099025726317	0.9163170166015625	-0.06451820373535157	-0.001327000021934509	0.9361539916992188	-0.07734590148925781	-0.007828979969024659	0.9584869995117188	-0.08972930145263672	-0.01883329963684082	0.9921749877929688	-0.058118999481201174	0.0260310001373291	0.948281005859375	-0.06861640167236328	0.01849760055541992	0.9638670043945312	-0.07768209838867188	0.010621700286865234	0.9785170288085937	-0.08598699951171875	-0.002732680082321167	1.002530029296875	-0.11261900329589844	-0.03586600112915039	1.06206005859375
